<?xml version="1.0" encoding="UTF-8"?>
<svg width="229px" height="103px" viewBox="0 0 229 103" version="1.1" xmlns="http://www.w3.org/2000/svg" xmlns:xlink="http://www.w3.org/1999/xlink">
    <!-- Generator: Sketch 58 (84663) - https://sketch.com -->
    <title>500</title>
    <desc>Created with Sketch.</desc>
    <defs>
        <linearGradient x1="50%" y1="-377.210115%" x2="50%" y2="100%" id="linearGradient-1">
            <stop stop-color="#FFB46D" offset="0%"></stop>
            <stop stop-color="#FF8738" offset="100%"></stop>
        </linearGradient>
        <path d="M676.776,857.072 C676.776,866.192046 674.256025,873.175976 669.216,878.024 C664.175975,882.872024 656.952047,885.296 647.544,885.296 C641.207968,885.296 635.688024,885.032003 630.984,884.504 L629.829995,884.3675 C625.679316,883.850499 622.416012,883.152004 620.04,882.272 L620.04,867.008 C623.496017,867.680003 627.071982,868.183998 630.768,868.52 C634.464018,868.856002 638.471978,869.024 642.792,869.024 C648.84003,869.024 653.135987,868.088009 655.68,866.216 C658.224013,864.343991 659.496,861.200022 659.496,856.784 C659.496,852.367978 658.320012,849.296009 655.968,847.568 C653.676296,845.884299 649.265641,845.020875 642.735908,844.977704 L642.216,844.976 C638.471981,844.976 635.136015,845.095999 632.208,845.336 C629.279985,845.576001 626.520013,845.935998 623.928,846.416 L623.928,793.712 L671.016,793.712 L671.016,809.264 L641.208,809.264 L641.208,831.152 C643.320011,830.959999 645.215992,830.816 646.896,830.72 C648.576008,830.624 650.183992,830.576 651.72,830.576 C660.648045,830.576 667.055981,832.711979 670.944,836.984 C674.832019,841.256021 676.776,847.951954 676.776,857.072 Z M757.128,838.64 C757.128,855.824086 754.560026,867.895965 749.424,874.856 C744.287974,881.816035 735.144066,885.296 721.992,885.296 C713.735959,885.296 707.280023,884.28801 702.624,882.272 C697.967977,880.25599 694.440012,877.040022 692.04,872.624 C690.215991,869.167983 688.872004,864.728027 688.008,859.304 C687.173789,854.067008 686.742306,847.465331 686.713541,839.498782 L686.712,838.64 C686.712,821.647915 689.303974,809.672035 694.488,802.712 C699.672026,795.751965 708.839934,792.272 721.992,792.272 C730.248041,792.272 736.679977,793.25599 741.288,795.224 C745.896023,797.19201 749.399988,800.431977 751.8,804.944 C753.624009,808.304017 754.967996,812.671973 755.832,818.048 C756.696004,823.424027 757.128,830.287958 757.128,838.64 Z M739.704,838.64 L739.699834,837.341911 C739.623454,825.585775 738.496853,817.762546 736.32,813.872 C734.063989,809.83998 729.288036,807.824 721.992,807.824 C714.887964,807.824 710.160012,809.887979 707.808,814.016 C705.455988,818.144021 704.28,826.351939 704.28,838.64 L704.284166,839.927984 C704.360546,851.591488 705.487147,859.322086 707.664,863.12 C709.920011,867.05602 714.695964,869.024 721.992,869.024 C729.096036,869.024 733.823988,866.98402 736.176,862.904 C738.528012,858.82398 739.704,850.73606 739.704,838.64 Z M839.128,838.64 C839.128,855.824086 836.560026,867.895965 831.424,874.856 C826.287974,881.816035 817.144066,885.296 803.992,885.296 C795.735959,885.296 789.280023,884.28801 784.624,882.272 C779.967977,880.25599 776.440012,877.040022 774.04,872.624 C772.215991,869.167983 770.872004,864.728027 770.008,859.304 C769.173789,854.067008 768.742306,847.465331 768.713541,839.498782 L768.712,838.64 C768.712,821.647915 771.303974,809.672035 776.488,802.712 C781.672026,795.751965 790.839934,792.272 803.992,792.272 C812.248041,792.272 818.679977,793.25599 823.288,795.224 C827.896023,797.19201 831.399988,800.431977 833.8,804.944 C835.624009,808.304017 836.967996,812.671973 837.832,818.048 C838.696004,823.424027 839.128,830.287958 839.128,838.64 Z M821.704,838.64 L821.699834,837.341911 C821.623454,825.585775 820.496853,817.762546 818.32,813.872 C816.063989,809.83998 811.288036,807.824 803.992,807.824 C796.887964,807.824 792.160012,809.887979 789.808,814.016 C787.455988,818.144021 786.28,826.351939 786.28,838.64 L786.284166,839.927984 C786.360546,851.591488 787.487147,859.322086 789.664,863.12 C791.920011,867.05602 796.695964,869.024 803.992,869.024 C811.096036,869.024 815.823988,866.98402 818.176,862.904 C820.528012,858.82398 821.704,850.73606 821.704,838.64 Z" id="path-2"></path>
        <filter x="-4.6%" y="-5.4%" width="109.1%" height="121.5%" filterUnits="objectBoundingBox" id="filter-3">
            <feOffset dx="0" dy="5" in="SourceAlpha" result="shadowOffsetOuter1"></feOffset>
            <feGaussianBlur stdDeviation="2.5" in="shadowOffsetOuter1" result="shadowBlurOuter1"></feGaussianBlur>
            <feColorMatrix values="0 0 0 0 0   0 0 0 0 0   0 0 0 0 0  0 0 0 0.75 0" type="matrix" in="shadowBlurOuter1"></feColorMatrix>
        </filter>
    </defs>
    <g id="Under-Screens" stroke="none" stroke-width="1" fill="none" fill-rule="evenodd">
        <g id="P2---Login-Copy" transform="translate(-615.000000, -792.000000)" fill-rule="nonzero">
            <g id="500">
                <use fill="black" fill-opacity="1" filter="url(#filter-3)" xlink:href="#path-2"></use>
                <use fill="#FFFFFF" xlink:href="#path-2"></use>
                <use fill="url(#linearGradient-1)" xlink:href="#path-2"></use>
            </g>
        </g>
    </g>
</svg>